{"asset":{"version":"2.0","generator":"THREE.GLTFExporter"},"scenes":[{"name":"Cryo Front","nodes":[4],"extras":{"visible":true,"opacity":0.8}},{"name":"Cryo Back","nodes":[9],"extras":{"visible":true,"opacity":0.8}},{"name":"Cryo Sides","nodes":[14],"extras":{"visible":true,"opacity":0.8}},{"name":"Services Front","nodes":[19],"extras":{"visible":true,"opacity":0.6}},{"name":"Services Back","nodes":[24],"extras":{"visible":true,"opacity":0.6}},{"name":"Bath","nodes":[29],"extras":{"visible":true}}],"scene":0,"nodes":[{"name":"ECAL_Cryo_front_0","mesh":0},{"children":[0]},{"children":[1]},{"children":[2]},{"children":[3]},{"name":"ECAL_Cryo_back_1","mesh":1},{"children":[5]},{"children":[6]},{"children":[7]},{"children":[8]},{"name":"ECAL_Cryo_side_2","mesh":2},{"children":[10]},{"children":[11]},{"children":[12]},{"children":[13]},{"name":"services_front_3","mesh":3},{"children":[15]},{"children":[16]},{"children":[17]},{"children":[18]},{"name":"services_back_4","mesh":4},{"children":[20]},{"children":[21]},{"children":[22]},{"children":[23]},{"name":"LAr_bath_5","mesh":5},{"children":[25]},{"children":[26]},{"children":[27]},{"children":[28]}],"bufferViews":[{"buffer":0,"byteOffset":0,"byteLength":34560,"target":34962,"byteStride":12},{"buffer":0,"byteOffset":34560,"byteLength":34560,"target":34962,"byteStride":12},{"buffer":0,"byteOffset":69120,"byteLength":34560,"target":34962,"byteStride":12},{"buffer":0,"byteOffset":103680,"byteLength":34560,"target":34962,"byteStride":12},{"buffer":0,"byteOffset":138240,"byteLength":83376,"target":34962,"byteStride":12},{"buffer":0,"byteOffset":221616,"byteLength":83376,"target":34962,"byteStride":12},{"buffer":0,"byteOffset":304992,"byteLength":34560,"target":34962,"byteStride":12},{"buffer":0,"byteOffset":339552,"byteLength":34560,"target":34962,"byteStride":12},{"buffer":0,"byteOffset":374112,"byteLength":34560,"target":34962,"byteStride":12},{"buffer":0,"byteOffset":408672,"byteLength":34560,"target":34962,"byteStride":12},{"buffer":0,"byteOffset":443232,"byteLength":34560,"target":34962,"byteStride":12},{"buffer":0,"byteOffset":477792,"byteLength":34560,"target":34962,"byteStride":12}],"buffers":[{"byteLength":512352,"uri":"data:application/octet-stream;base64,"}],"accessors":[{"bufferView":0,"componentType":5126,"count":2880,"max":[215,215,226],"min":[-215,-215,-226],"type":"VEC3"},{"bufferView":1,"componentType":5126,"count":2880,"max":[1,1,1],"min":[-1,-1,-1],"type":"VEC3"},{"bufferView":2,"componentType":5126,"count":2880,"max":[270,270,226],"min":[-270,-270,-226],"type":"VEC3"},{"bufferView":3,"componentType":5126,"count":2880,"max":[1,1,1],"min":[-1,-1,-1],"type":"VEC3"},{"bufferView":4,"componentType":5126,"count":6948,"max":[260,260,226],"min":[-260,-260,-226],"type":"VEC3"},{"bufferView":5,"componentType":5126,"count":6948,"max":[1,1,1],"min":[-1,-1,-1],"type":"VEC3"},{"bufferView":6,"componentType":5126,"count":2880,"max":[216,216,216],"min":[-216,-216,-216],"type":"VEC3"},{"bufferView":7,"componentType":5126,"count":2880,"max":[1,1,1],"min":[-1,-1,-1],"type":"VEC3"},{"bufferView":8,"componentType":5126,"count":2880,"max":[260,260,216],"min":[-260,-260,-216],"type":"VEC3"},{"bufferView":9,"componentType":5126,"count":2880,"max":[1,1,1],"min":[-1,-1,-1],"type":"VEC3"},{"bufferView":10,"componentType":5126,"count":2880,"max":[256,256,216],"min":[-256,-256,-216],"type":"VEC3"},{"bufferView":11,"componentType":5126,"count":2880,"max":[1,1,1],"min":[-1,-1,-1],"type":"VEC3"}],"materials":[{"pbrMetallicRoughness":{"baseColorFactor":[0.803921568627451,0.803921568627451,1,1],"metallicFactor":0.5,"roughnessFactor":0.5}},{"pbrMetallicRoughness":{"baseColorFactor":[0.803921568627451,0.803921568627451,0.803921568627451,1],"metallicFactor":0.5,"roughnessFactor":0.5}}],"meshes":[{"primitives":[{"mode":4,"attributes":{"POSITION":0,"NORMAL":1},"material":0}]},{"primitives":[{"mode":4,"attributes":{"POSITION":2,"NORMAL":3},"material":0}]},{"primitives":[{"mode":4,"attributes":{"POSITION":4,"NORMAL":5},"material":0}]},{"primitives":[{"mode":4,"attributes":{"POSITION":6,"NORMAL":7},"material":1}]},{"primitives":[{"mode":4,"attributes":{"POSITION":8,"NORMAL":9},"material":1}]},{"primitives":[{"mode":4,"attributes":{"POSITION":10,"NORMAL":11},"material":1}]}]}